<svg xmlns="http://www.w3.org/2000/svg" viewBox="0 0 500 500"><g id="freepik--background-complete--inject-3"><rect x="416.78" y="398.49" width="33.12" height="0.25" style="fill:#ebebeb"></rect><rect x="322.53" y="401.21" width="8.69" height="0.25" style="fill:#ebebeb"></rect><rect x="396.59" y="389.21" width="19.19" height="0.25" style="fill:#ebebeb"></rect><rect x="52.46" y="390.89" width="43.19" height="0.25" style="fill:#ebebeb"></rect><rect x="104.56" y="390.89" width="6.33" height="0.25" style="fill:#ebebeb"></rect><rect x="131.47" y="395.11" width="93.68" height="0.25" style="fill:#ebebeb"></rect><path d="M237,337.8H43.92a5.71,5.71,0,0,1-5.71-5.71V60.66A5.71,5.71,0,0,1,43.92,55H237a5.71,5.71,0,0,1,5.71,5.71V332.09A5.71,5.71,0,0,1,237,337.8ZM43.92,55.2a5.47,5.47,0,0,0-5.46,5.46V332.09a5.47,5.47,0,0,0,5.46,5.46H237a5.47,5.47,0,0,0,5.46-5.46V60.66A5.47,5.47,0,0,0,237,55.2Z" style="fill:#ebebeb"></path><path d="M453.31,337.8H260.21a5.72,5.72,0,0,1-5.71-5.71V60.66A5.72,5.72,0,0,1,260.21,55h193.1A5.71,5.71,0,0,1,459,60.66V332.09A5.71,5.71,0,0,1,453.31,337.8ZM260.21,55.2a5.47,5.47,0,0,0-5.46,5.46V332.09a5.47,5.47,0,0,0,5.46,5.46h193.1a5.47,5.47,0,0,0,5.46-5.46V60.66a5.47,5.47,0,0,0-5.46-5.46Z" style="fill:#ebebeb"></path><rect y="382.4" width="500" height="0.25" style="fill:#ebebeb"></rect><polygon points="374.07 280.12 374.07 383.01 380.8 383.01 419.9 383.01 426.63 383.01 426.63 280.12 374.07 280.12" style="fill:#ebebeb"></polygon><polygon points="384.16 267.42 384.16 290.22 388.31 290.22 412.39 290.22 416.54 290.22 416.54 267.42 384.16 267.42" style="fill:#ebebeb"></polygon><rect x="377.43" y="283.49" width="6.73" height="6.73" style="fill:#fafafa"></rect><rect x="390.47" y="283.49" width="6.73" height="6.73" style="fill:#fafafa"></rect><rect x="403.5" y="283.49" width="6.73" height="6.73" style="fill:#fafafa"></rect><rect x="416.54" y="283.49" width="6.73" height="6.73" style="fill:#f0f0f0"></rect><rect x="377.43" y="295.71" width="6.73" height="6.73" style="fill:#f0f0f0"></rect><rect x="390.47" y="295.71" width="6.73" height="6.73" style="fill:#f0f0f0"></rect><rect x="403.5" y="295.71" width="6.73" height="6.73" style="fill:#fafafa"></rect><rect x="416.54" y="295.71" width="6.73" height="6.73" style="fill:#fafafa"></rect><rect x="377.43" y="307.94" width="6.73" height="6.73" style="fill:#f0f0f0"></rect><rect x="390.47" y="307.94" width="6.73" height="6.73" style="fill:#fafafa"></rect><rect x="403.5" y="307.94" width="6.73" height="6.73" style="fill:#fafafa"></rect><rect x="390.47" y="272.92" width="6.73" height="6.73" style="fill:#fafafa"></rect><rect x="403.5" y="272.92" width="6.73" height="6.73" style="fill:#f0f0f0"></rect><rect x="416.54" y="307.94" width="6.73" height="6.73" style="fill:#f0f0f0"></rect><rect x="377.43" y="320.17" width="6.73" height="6.73" style="fill:#fafafa"></rect><rect x="390.47" y="320.17" width="6.73" height="6.73" style="fill:#f0f0f0"></rect><rect x="403.5" y="320.17" width="6.73" height="6.73" style="fill:#f0f0f0"></rect><rect x="416.54" y="320.17" width="6.73" height="6.73" style="fill:#fafafa"></rect><rect x="377.43" y="332.4" width="6.73" height="6.73" style="fill:#f0f0f0"></rect><rect x="390.47" y="332.4" width="6.73" height="6.73" style="fill:#fafafa"></rect><rect x="403.5" y="332.4" width="6.73" height="6.73" style="fill:#fafafa"></rect><rect x="416.54" y="332.4" width="6.73" height="6.73" style="fill:#f0f0f0"></rect><rect x="377.43" y="344.62" width="6.73" height="6.73" style="fill:#f0f0f0"></rect><rect x="390.47" y="344.62" width="6.73" height="6.73" style="fill:#fafafa"></rect><rect x="403.5" y="344.62" width="6.73" height="6.73" style="fill:#f0f0f0"></rect><rect x="416.54" y="344.62" width="6.73" height="6.73" style="fill:#fafafa"></rect><rect x="377.43" y="356.85" width="6.73" height="6.73" style="fill:#fafafa"></rect><rect x="390.47" y="356.85" width="6.73" height="6.73" style="fill:#fafafa"></rect><rect x="403.5" y="356.85" width="6.73" height="6.73" style="fill:#f0f0f0"></rect><rect x="416.54" y="356.85" width="6.73" height="6.73" style="fill:#f0f0f0"></rect><rect x="377.43" y="369.08" width="6.73" height="6.73" style="fill:#f0f0f0"></rect><rect x="416.54" y="369.08" width="6.73" height="6.73" style="fill:#fafafa"></rect><polygon points="410.24 369.08 390.47 369.08 390.47 371.01 391.27 371.01 391.27 383.01 393.2 383.01 393.2 371.01 407.5 371.01 407.5 383.01 409.44 383.01 409.44 371.01 410.24 371.01 410.24 369.08" style="fill:#f5f5f5"></polygon><rect x="393.2" y="371.01" width="7.15" height="12" style="fill:#e6e6e6"></rect><rect x="400.35" y="371.01" width="7.15" height="12" style="fill:#ebebeb"></rect><polygon points="66.95 280.12 66.95 383.01 73.67 383.01 112.78 383.01 119.51 383.01 119.51 280.12 66.95 280.12" style="fill:#f5f5f5"></polygon><polygon points="70.31 283.49 70.31 295.71 70.31 299.08 70.31 302.44 77.04 302.44 77.04 299.08 77.04 295.71 77.04 283.49 70.31 283.49" style="fill:#e6e6e6"></polygon><polygon points="83.35 283.49 83.35 295.71 83.35 299.08 83.35 302.44 90.08 302.44 90.08 299.08 90.08 295.71 90.08 283.49 83.35 283.49" style="fill:#f0f0f0"></polygon><polygon points="96.38 283.49 96.38 295.71 96.38 299.08 96.38 302.44 103.11 302.44 103.11 299.08 103.11 295.71 103.11 283.49 96.38 283.49" style="fill:#e6e6e6"></polygon><polygon points="109.42 283.49 109.42 295.71 109.42 300.91 109.42 302.44 116.15 302.44 116.15 300.91 116.15 295.71 116.15 283.49 109.42 283.49" style="fill:#f0f0f0"></polygon><polygon points="70.31 307.94 70.31 320.17 70.31 323.53 70.31 326.9 77.04 326.9 77.04 323.53 77.04 320.17 77.04 307.94 70.31 307.94" style="fill:#f0f0f0"></polygon><polygon points="83.35 307.94 83.35 320.17 83.35 324.91 83.35 326.9 90.08 326.9 90.08 324.91 90.08 320.17 90.08 307.94 83.35 307.94" style="fill:#f0f0f0"></polygon><polygon points="96.38 307.94 96.38 320.17 96.38 323.53 96.38 326.9 103.11 326.9 103.11 323.53 103.11 320.17 103.11 307.94 96.38 307.94" style="fill:#e6e6e6"></polygon><polygon points="109.42 307.94 109.42 320.17 109.42 323.53 109.42 326.9 116.15 326.9 116.15 323.53 116.15 320.17 116.15 307.94 109.42 307.94" style="fill:#f0f0f0"></polygon><polygon points="70.31 332.4 70.31 344.62 70.31 347.99 70.31 351.35 77.04 351.35 77.04 347.99 77.04 344.62 77.04 332.4 70.31 332.4" style="fill:#e6e6e6"></polygon><polygon points="83.35 332.4 83.35 344.62 83.35 347.99 83.35 351.35 90.08 351.35 90.08 347.99 90.08 344.62 90.08 332.4 83.35 332.4" style="fill:#f0f0f0"></polygon><polygon points="96.38 332.4 96.38 344.62 96.38 347.99 96.38 351.35 103.11 351.35 103.11 347.99 103.11 344.62 103.11 332.4 96.38 332.4" style="fill:#f0f0f0"></polygon><polygon points="109.42 332.4 109.42 344.62 109.42 349.27 109.42 351.35 116.15 351.35 116.15 349.27 116.15 344.62 116.15 332.4 109.42 332.4" style="fill:#e6e6e6"></polygon><polygon points="112.78 356.85 109.42 356.85 103.11 356.85 96.38 356.85 90.08 356.85 83.35 356.85 70.31 356.85 70.31 363.58 83.35 363.58 90.08 363.58 96.38 363.58 103.11 363.58 109.42 363.58 112.78 363.58 116.15 363.58 116.15 356.85 112.78 356.85" style="fill:#f0f0f0"></polygon><polygon points="103.11 369.08 83.35 369.08 83.35 371.01 84.15 371.01 84.15 383.01 86.08 383.01 86.08 371.01 100.38 371.01 100.38 383.01 102.31 383.01 102.31 371.01 103.11 371.01 103.11 369.08" style="fill:#ebebeb"></polygon><rect x="86.08" y="371.01" width="7.15" height="12" style="fill:#fafafa"></rect><rect x="93.23" y="371.01" width="7.15" height="12" style="fill:#f5f5f5"></rect><polygon points="119.51 326.9 119.51 383.01 126.24 383.01 165.35 383.01 172.07 383.01 172.07 326.9 119.51 326.9" style="fill:#e6e6e6"></polygon><rect x="122.88" y="332.4" width="6.73" height="6.73" style="fill:#f0f0f0"></rect><rect x="135.91" y="332.4" width="6.73" height="6.73" style="fill:#f0f0f0"></rect><rect x="148.95" y="332.4" width="6.73" height="6.73" style="fill:#f0f0f0"></rect><rect x="161.98" y="332.4" width="6.73" height="6.73" style="fill:#f0f0f0"></rect><rect x="122.88" y="344.62" width="6.73" height="6.73" style="fill:#f0f0f0"></rect><rect x="135.91" y="344.62" width="6.73" height="6.73" style="fill:#f0f0f0"></rect><rect x="148.95" y="344.62" width="6.73" height="6.73" style="fill:#f0f0f0"></rect><rect x="161.98" y="344.62" width="6.73" height="6.73" style="fill:#f0f0f0"></rect><rect x="122.88" y="356.85" width="6.73" height="6.73" style="fill:#f0f0f0"></rect><rect x="135.91" y="356.85" width="6.73" height="6.73" style="fill:#f0f0f0"></rect><rect x="148.95" y="356.85" width="6.73" height="6.73" style="fill:#f0f0f0"></rect><rect x="161.98" y="356.85" width="6.73" height="6.73" style="fill:#f0f0f0"></rect><rect x="122.88" y="369.08" width="6.73" height="6.73" style="fill:#f0f0f0"></rect><rect x="161.98" y="369.08" width="6.73" height="6.73" style="fill:#f0f0f0"></rect><polygon points="155.68 369.08 135.91 369.08 135.91 371.01 136.71 371.01 136.71 383.01 138.64 383.01 138.64 371.01 152.95 371.01 152.95 383.01 154.88 383.01 154.88 371.01 155.68 371.01 155.68 369.08" style="fill:#f5f5f5"></polygon><rect x="138.64" y="371.01" width="7.15" height="12" style="fill:#e6e6e6"></rect><rect x="145.79" y="371.01" width="7.15" height="12" style="fill:#ebebeb"></rect><polygon points="312.24 280.12 312.24 383.01 318.97 383.01 358.08 383.01 364.81 383.01 364.81 280.12 312.24 280.12" style="fill:#fafafa"></polygon><polygon points="331.37 356.85 328.64 356.85 315.61 356.85 315.61 360.22 315.61 363.58 315.61 375.81 322.34 375.81 322.34 363.58 328.64 363.58 331.37 363.58 335.37 363.58 335.37 356.85 331.37 356.85" style="fill:#f0f0f0"></polygon><polygon points="356.85 356.85 354.71 356.85 341.68 356.85 341.68 363.58 354.71 363.58 354.71 375.81 361.44 375.81 361.44 363.58 361.44 358.71 361.44 356.85 356.85 356.85" style="fill:#f0f0f0"></polygon><polygon points="348.41 369.08 328.64 369.08 328.64 371.01 329.44 371.01 329.44 383.01 331.37 383.01 331.37 371.01 345.68 371.01 345.68 383.01 347.61 383.01 347.61 371.01 348.41 371.01 348.41 369.08" style="fill:#f5f5f5"></polygon><rect x="331.37" y="371.01" width="7.15" height="12" style="fill:#ebebeb"></rect><rect x="338.52" y="371.01" width="7.15" height="12" style="fill:#e0e0e0"></rect><rect x="315.61" y="283.49" width="19.76" height="18.96" style="fill:#f0f0f0"></rect><rect x="341.68" y="283.49" width="19.76" height="18.96" style="fill:#f0f0f0"></rect><rect x="315.61" y="307.94" width="19.76" height="18.96" style="fill:#f0f0f0"></rect><rect x="341.68" y="307.94" width="19.76" height="18.96" style="fill:#f0f0f0"></rect><rect x="315.61" y="332.4" width="19.76" height="18.96" style="fill:#f0f0f0"></rect><rect x="341.68" y="332.4" width="19.76" height="18.96" style="fill:#f0f0f0"></rect><path d="M125.77,255.69a2.63,2.63,0,0,0,1.43,4.59c16.31,1.76,49.28,4.19,58.2-3.66,11.47-10.1-21.2-.55-23.72-2.85s6.43-7.38-.61-7.25c-4.93.09-12.61,8.83-20.49,7.67-6.43-.94,2.14-5.61-3.83-5.61C131.59,248.58,129.22,252.61,125.77,255.69Z" style="fill:#f0f0f0"></path><path d="M157.16,253.08a1.88,1.88,0,0,0,1,3.29c11.68,1.26,35.28,3,41.67-2.62,8.21-7.23-15.18-.4-17-2s4.6-5.28-.44-5.19c-3.53.06-9,6.32-14.67,5.49-4.6-.67,1.53-4-2.74-4C161.32,248,159.63,250.88,157.16,253.08Z" style="fill:#f5f5f5"></path><circle cx="274.28" cy="131.7" r="42" style="fill:#f0f0f0"></circle><path d="M267.19,144.37a2.44,2.44,0,0,0,1,4.5c25.5,3,88.63,8.65,104.94-5.71,19.68-17.32-36.35-.94-40.68-4.87s11-12.66-1-12.44C322.92,126,309.75,141,296.23,139c-11-1.62,3.67-9.62-6.56-9.62C279.12,129.39,275.38,139.18,267.19,144.37Z" style="fill:#fafafa"></path><path d="M331.94,81a2.27,2.27,0,0,0,1.2,4c15.72,1.73,48.84,4.29,57.71-3.51,11.24-9.9-20.76-.54-23.24-2.79s6.3-7.23-.59-7.1c-4.84.08-12.36,8.65-20.08,7.51-6.29-.92,2.1-5.49-3.75-5.49C337.89,73.6,335.6,77.93,331.94,81Z" style="fill:#f5f5f5"></path></g><g id="freepik--Shadow--inject-3"><ellipse id="freepik--path--inject-3" cx="245.18" cy="412.39" rx="193.89" ry="11.32" style="fill:#f5f5f5"></ellipse></g><g id="freepik--Stairs--inject-3"><rect x="107.39" y="391.42" width="32.73" height="16.36" style="fill:#FDF4EF"></rect><rect x="107.39" y="391.42" width="32.73" height="16.36" style="fill:#fff;opacity:0.30000000000000004"></rect><rect x="127.84" y="395.51" width="16.36" height="8.18" transform="translate(535.62 263.58) rotate(90)" style="opacity:0.2"></rect><rect x="172.84" y="358.7" width="32.72" height="49.09" style="fill:#FDF4EF"></rect><rect x="172.84" y="358.7" width="32.72" height="49.09" style="fill:#fff;opacity:0.4"></rect><rect x="176.93" y="379.15" width="49.09" height="8.18" transform="translate(584.71 181.77) rotate(90)" style="opacity:0.2"></rect><rect x="238.29" y="325.97" width="32.73" height="81.81" style="fill:#FDF4EF"></rect><rect x="238.29" y="325.97" width="32.73" height="81.81" style="fill:#fff;opacity:0.30000000000000004"></rect><rect x="226.02" y="362.79" width="81.81" height="8.18" transform="translate(633.8 99.96) rotate(90)" style="opacity:0.2"></rect><rect x="303.74" y="276.88" width="32.72" height="130.9" style="fill:#FDF4EF"></rect><rect x="303.74" y="276.88" width="32.72" height="130.9" style="fill:#fff;opacity:0.2"></rect><rect x="266.92" y="338.24" width="130.9" height="8.18" transform="translate(674.71 9.96) rotate(90)" style="opacity:0.2"></rect><rect x="369.19" y="211.43" width="32.73" height="196.35" style="fill:#FDF4EF"></rect><rect x="299.65" y="305.52" width="196.35" height="8.18" transform="translate(707.43 -88.21) rotate(90)" style="opacity:0.2"></rect><polygon points="150.59 367.11 107.89 367.11 92.49 360.57 133.76 360.57 133.76 327.84 199.21 327.84 199.21 295.12 264.66 295.12 264.66 246.03 330.11 246.03 330.11 180.58 385.32 180.58 385.32 123.55 402.15 123.55 402.15 187.13 346.94 187.13 346.94 252.57 281.49 252.57 281.49 301.66 216.04 301.66 216.04 334.39 150.59 334.39 150.59 367.11" style="fill:#FDF4EF"></polygon><g style="opacity:0.4"><polygon points="150.59 367.11 107.89 367.11 92.49 360.57 133.76 360.57 133.76 327.84 199.21 327.84 199.21 295.12 264.66 295.12 264.66 246.03 330.11 246.03 330.11 180.58 385.32 180.58 385.32 123.55 402.15 123.55 402.15 187.13 346.94 187.13 346.94 252.57 281.49 252.57 281.49 301.66 216.04 301.66 216.04 334.39 150.59 334.39 150.59 367.11" style="fill:#fff"></polygon></g><polygon points="385.32 180.58 385.32 123.55 402.15 123.55 402.15 187.13 385.32 180.58" style="fill:#FDF4EF"></polygon><polygon points="330.11 246.03 330.11 180.58 346.94 187.13 346.94 252.57 330.11 246.03" style="fill:#FDF4EF"></polygon><polygon points="264.66 295.12 264.66 246.03 281.49 252.57 281.49 301.66 264.66 295.12" style="fill:#FDF4EF"></polygon><polygon points="199.21 327.84 199.21 295.12 216.04 301.66 216.04 334.39 199.21 327.84" style="fill:#FDF4EF"></polygon><polygon points="133.76 360.57 133.76 327.84 150.59 334.39 150.59 367.11 133.76 360.57" style="fill:#FDF4EF"></polygon><polygon points="374.07 128.21 393.73 104.57 413.39 142.52 374.07 128.21" style="fill:#FDF4EF"></polygon></g><g id="freepik--Character--inject-3"><path d="M194.78,162.59a53.91,53.91,0,0,0-3.69,9.57l-.06.24c-.14.51-.41,1.65-.42,1.7-.12.52-.22,1-.32,1.57,0,0-.2,1.18-.27,1.74a1.23,1.23,0,0,0,0,.19c-.15,1.14-.25,3.55-.25,3.59,0,.59,0,1.17,0,1.75,0,0,.1,1.28.18,1.87h0l0,.17a1,1,0,0,1,0-.17c1.52,9.53,2.94,10.77,4.11,14.31,3.42,10.41,6.07,43.41,6.07,43.41-19.78,5.33-43.59,27-43.59,27l4.27,9.88s51.32-24.27,55-29.2c4.32-5.85,1.84-36.85,3.2-49.06.5-4.52,1.07-8.45,1.65-12l6.43-9.92Z" style="fill:#263238"></path><path d="M204.34,188.67l-3.83-4.09s-7.12,5.92,18,27.69c0-4.35.14-8.24.46-11.09,0-.38.08-.72.13-1.08Z" style="opacity:0.2"></path><polygon points="157.27 271.31 146.86 276.61 150.07 281.86 159.76 277.56 157.27 271.31" style="fill:#ffc3bd"></polygon><path d="M150.52,283.18a.16.16,0,0,1,.22-.22c.12.05,2.69,1.28,3.1,2.44a.88.88,0,0,1,0,.66.63.63,0,0,1-.6.43c-.48,0-1.13-.68-1.63-1.41A12.67,12.67,0,0,1,150.52,283.18Zm.49.32c.62,1.18,1.65,2.65,2.22,2.65.07,0,.18,0,.28-.23a.49.49,0,0,0,0-.41,1.59,1.59,0,0,0-.15-.29A7.88,7.88,0,0,0,151,283.5Z" style="fill:#FDF4EF"></path><path d="M150.47,283.1a.16.16,0,0,1,.09-.15,4.86,4.86,0,0,1,2.89-.65,1.23,1.23,0,0,1,.76.6c.23.41.12.66,0,.79-.57.58-2.81.05-3.6-.44a.12.12,0,0,1-.05-.05A.17.17,0,0,1,150.47,283.1Zm3.42-.11a.94.94,0,0,0-.51-.36,4,4,0,0,0-2.32.47c.93.43,2.55.66,2.92.35,0,0,.12-.12,0-.38l-.06-.08Z" style="fill:#FDF4EF"></path><path d="M150.92,282l-4.41-6.38a.63.63,0,0,0-.75-.22l-6,2.44a1,1,0,0,0-.58,1.34,1.24,1.24,0,0,0,.1.2c1.63,2.27,3.17,4.23,5.15,7.09,2.33,3.38,1.34,2.8,4,6.81,1.62,2.41,4.64,1,4.08-.14-2.63-5-1.56-6.5-1.14-9.44A2.48,2.48,0,0,0,150.92,282Z" style="fill:#263238"></path><polygon points="155.63 272.15 151.73 274.13 154.55 279.87 157.77 278.45 155.63 272.15" style="opacity:0.2"></polygon><polygon points="156.52 266.28 152.11 268.84 157.63 281.49 162.75 280.07 156.52 266.28" style="fill:#FDF4EF"></polygon><path d="M249.39,235.28s-45.07-38-48.91-44.76,6.43-16,6.43-16l11.43,1.6s48.17,43.71,46.2,52.45Z" style="fill:#263238"></path><path d="M264.54,228.57c-1.27,8.88-20.3,51.58-20.3,51.58s-3.93-.23-11.13-4.73c0,0,7.52-33.75,15.16-46.85Z" style="fill:#263238"></path><polygon points="236.34 277.44 232.94 288.61 238.95 289.94 242.57 279.98 236.34 277.44" style="fill:#ffc3bd"></polygon><path d="M240.21,290.54a.19.19,0,0,1-.11-.16.16.16,0,0,1,.11-.16c.12-.05,2.79-1.05,3.91-.53a.88.88,0,0,1,.46.47.62.62,0,0,1-.11.72,3,3,0,0,1-2.15.2A13.07,13.07,0,0,1,240.21,290.54Zm.58-.14c1.27.37,3,.65,3.44.25.06,0,.12-.14,0-.37A.46.46,0,0,0,244,290a1.58,1.58,0,0,0-.31-.09A7.78,7.78,0,0,0,240.79,290.4Z" style="fill:#FDF4EF"></path><path d="M240.13,290.51a.14.14,0,0,1,0-.16,4.74,4.74,0,0,1,1.53-2.54,1.26,1.26,0,0,1,1-.13c.45.12.55.38.54.57,0,.81-1.91,2.06-2.81,2.29h-.07A.14.14,0,0,1,240.13,290.51Zm2.28-2.53a.84.84,0,0,0-.6.11,4,4,0,0,0-1.28,2c.95-.37,2.25-1.38,2.28-1.86,0-.05,0-.17-.3-.25Z" style="fill:#FDF4EF"></path><path d="M239.66,289.44,232,288.2a.62.62,0,0,0-.68.38l-2.39,6a1,1,0,0,0,.57,1.35l.21.07c2.77.4,5.24.64,8.68,1.21,4.05.65,2.94,1,7.7,1.81,2.86.51,3.92-2.67,2.73-3-5.46-1.6-5.77-3.38-7.59-5.72A2.51,2.51,0,0,0,239.66,289.44Z" style="fill:#263238"></path><polygon points="235.81 279.2 234.53 283.39 240.62 285.34 241.83 282.03 235.81 279.2" style="opacity:0.2"></polygon><polygon points="232.2 274.49 230.99 279.44 243.93 284.24 246.45 279.57 232.2 274.49" style="fill:#FDF4EF"></polygon><path d="M180.51,147.24l.75-7.24,6.32,1.32-2.15,7.34s2.13,3.39,2,6.41-1.89,2.6-1.89,2.6.18,3.19-2.53,2.25-6.21-2.33-5.62-5A39.43,39.43,0,0,1,180.51,147.24Z" style="fill:#ffc3bd"></path><path d="M226.54,116.79c-2.17-8.18-27.15-.38-27.15-.38S187.2,120.34,184,123.3s-5,20.36-5,20.36l8.75,1.91,5.43-15C217.57,126.4,228.65,124.72,226.54,116.79Z" style="fill:#FDF4EF"></path><path d="M188,142.77a.76.76,0,0,1-1.14-1,.76.76,0,0,1,1.07-.07A.75.75,0,0,1,188,142.77Z" style="fill:#fff"></path><path d="M220.23,121.73l.06-7.72s-5.25-.9-13.24,14.15c3.59-.68,6.69-1.33,9.3-2Z" style="opacity:0.1"></path><path d="M252.4,101.94l1,4.85a3.71,3.71,0,0,1-3.23-.87Z" style="fill:#ba4d3c"></path><path d="M253.47,100c0,.5-.34.89-.67.87s-.58-.48-.53-1,.34-.89.67-.86S253.51,99.51,253.47,100Z" style="fill:#263238"></path><path d="M230.19,115.46s4.34.31,5.66-7.54c0,0,4.26-1.1,6.4,1.66s-3.67,7.33-.91,10.17S230.19,115.46,230.19,115.46Z" style="fill:#ffc3bd"></path><path d="M239.33,112.34a15,15,0,0,0,1.83,3.21c.41-1,.93-2,1.26-2.92Z" style="opacity:0.2"></path><path d="M234.06,96.37c-.85,6.7-1.36,9.52,1.33,13.56,4.45,4.44,12.48,5.67,15.33-.65,2.56-5.68,3.53-15.65-2.45-19.57a9.24,9.24,0,0,0-14.21,6.66Z" style="fill:#ffc3bd"></path><path d="M251.33,97.32a.26.26,0,0,0,.24.06,2.06,2.06,0,0,1,1.87.36.27.27,0,0,0,.38,0,.26.26,0,0,0,0-.37,2.61,2.61,0,0,0-2.36-.49.27.27,0,0,0-.19.33h0A.26.26,0,0,0,251.33,97.32Z" style="fill:#263238"></path><path d="M247.26,102.6l2.38-.13a5.78,5.78,0,0,1,1.13-5.64c2.3-3,8-4.54,3.37-9.66a12.49,12.49,0,0,0-10.33-4.34l3.81,2.73s-7.86-5.77-12.5.5a5.49,5.49,0,0,1,3.51.06s-20.88,7.06-3.24,23.81c0,0,.67-1.36,3.49.85a16.42,16.42,0,0,0,4.9-5.3C245.47,102.29,246.67,99.29,247.26,102.6Z" style="fill:#263238"></path><path d="M247.16,100.35a5.15,5.15,0,0,1,1.05,3.84c-.25,1.82-2.05,2-3.39.92s-2.53-3.13-1.6-4.67A2.35,2.35,0,0,1,247.16,100.35Z" style="fill:#ffc3bd"></path><path d="M256.38,89s.61,3.64-5.11,5.8C251.27,94.8,259.23,95.61,256.38,89Z" style="fill:#263238"></path><path d="M229.58,116.47l2.27-2.9s10.88,1,11.54,7.17Z" style="fill:#FDF4EF"></path><path d="M229.58,116.47l2.27-2.9s10.88,1,11.54,7.17Z" style="fill:#fff;opacity:0.5"></path><path d="M205.61,141.54c3-7.46,7.83-27.28,15.52-28.18s29.8,7.93,32.41,15.79-27.67,52.57-27.67,52.57L193.74,164S203.24,147.44,205.61,141.54Z" style="fill:#FDF4EF"></path><path d="M243.37,126.56s-5.83,11.12,1.2,25.12a137.62,137.62,0,0,0,7.12-14.12l-2.47-5.84Z" style="opacity:0.1"></path><path d="M211.19,142.29c4.2.63,8.81-.61,12.55-2.44,4.28-2.08,7.46-5.22,10.6-8.72,2.8-3.13,6.56-6.69,10.93-7.27,9.92-1.33,12,14.5,11,21.4-1.23,8.2-5.84,15.71-10.89,22.13a80.27,80.27,0,0,1-10,10.72c-1.18,1,.67,2.64,1.84,1.62,9.48-8.32,18.68-20.09,21.19-32.65,1.52-7.58-.39-18.39-7.15-23.3-6.11-4.44-12.86-.34-17.33,4.16-6,6-12.84,13.35-22.3,11.95-1.55-.23-2,2.17-.47,2.4Z" style="fill:#FDF4EF"></path><g style="opacity:0.30000000000000004"><path d="M211.19,142.29c4.2.63,8.81-.61,12.55-2.44,4.28-2.08,7.46-5.22,10.6-8.72,2.8-3.13,6.56-6.69,10.93-7.27,9.92-1.33,12,14.5,11,21.4-1.23,8.2-5.84,15.71-10.89,22.13a80.27,80.27,0,0,1-10,10.72c-1.18,1,.67,2.64,1.84,1.62,9.48-8.32,18.68-20.09,21.19-32.65,1.52-7.58-.39-18.39-7.15-23.3-6.11-4.44-12.86-.34-17.33,4.16-6,6-12.84,13.35-22.3,11.95-1.55-.23-2,2.17-.47,2.4Z"></path></g><path d="M282.57,155.63l-6.75,2.29-.92-5.09,6.92-2.17s1.37-3.57,4.12-4.66,3.87.91,3.87.91,2.76-1.47,3,1.33.18,7.27-2.41,7.82S284.84,155.66,282.57,155.63Z" style="fill:#ffc3bd"></path><path d="M279,150.16l-14.24,2.24c-9.35-21.91-13.42-31.6-20.52-27.8-7.46,4,5.77,25.24,5.77,25.24s6.28,11.54,9.61,14.38a2.72,2.72,0,0,0,.68.46c4.23,1.14,20.19-6.54,20.19-6.54Z" style="fill:#FDF4EF"></path><path d="M279,157.94a.76.76,0,1,1-1.14-1,.76.76,0,0,1,1.07-.06A.75.75,0,0,1,279,157.94Z" style="fill:#fff"></path><path d="M191.61,152.15h42.31a3.24,3.24,0,0,1,3.24,3.24v21.71a5.59,5.59,0,0,1-5.59,5.59H194a5.59,5.59,0,0,1-5.59-5.59V155.39a3.24,3.24,0,0,1,3.24-3.24Z" transform="translate(229.25 -102.82) rotate(55.29)" style="fill:#FDF4EF"></path><path d="M191.61,152.15h42.31a3.24,3.24,0,0,1,3.24,3.24v21.71a5.59,5.59,0,0,1-5.59,5.59H194a5.59,5.59,0,0,1-5.59-5.59V155.39a3.24,3.24,0,0,1,3.24-3.24Z" transform="translate(229.25 -102.82) rotate(55.29)" style="fill:#fff;opacity:0.30000000000000004"></path><path d="M235.5,178.3l-25-36.06a2.47,2.47,0,0,0-3.44-.62l-.75.52a7,7,0,0,0-1.76,9.68l19.87,28.67a7,7,0,0,0,9.68,1.76l.74-.51A2.48,2.48,0,0,0,235.5,178.3Z" style="opacity:0.1"></path><path d="M237.8,176.75l-25-36.06a2.47,2.47,0,0,0-3.44-.62l-.74.52a7,7,0,0,0-1.76,9.68l19.86,28.67a7,7,0,0,0,9.68,1.76l.75-.51A2.47,2.47,0,0,0,237.8,176.75Z" style="fill:#FDF4EF"></path><path d="M237.8,176.75l-25-36.06a2.47,2.47,0,0,0-3.44-.62l-.74.52a7,7,0,0,0-1.76,9.68l19.86,28.67a7,7,0,0,0,9.68,1.76l.75-.51A2.47,2.47,0,0,0,237.8,176.75Z" style="fill:#FDF4EF"></path><path d="M237.8,176.75l-25-36.06a2.47,2.47,0,0,0-3.44-.62l-.74.52a7,7,0,0,0-1.76,9.68l19.86,28.67a7,7,0,0,0,9.68,1.76l.75-.51A2.47,2.47,0,0,0,237.8,176.75Z" style="fill:#fff;opacity:0.5"></path><rect x="207.17" y="150.44" width="4.67" height="9.81" rx="1.95" transform="translate(217.93 -105.34) rotate(55.29)" style="fill:#FDF4EF"></rect><rect x="220.62" y="169.85" width="4.67" height="9.81" rx="1.95" transform="translate(239.62 -108.03) rotate(55.28)" style="fill:#FDF4EF"></rect><rect x="207.17" y="150.44" width="4.67" height="9.81" rx="1.95" transform="translate(217.93 -105.34) rotate(55.29)" style="opacity:0.30000000000000004"></rect><rect x="220.62" y="169.85" width="4.67" height="9.81" rx="1.95" transform="translate(239.62 -108.03) rotate(55.28)" style="opacity:0.30000000000000004"></rect><path d="M190.66,162.31S199,176,206.15,172l-5.94,4.12Z" style="opacity:0.2"></path><path d="M221.92,154.84c2-.28,3-1.38,4.67-2.15,1.12-.53-.22-1,.78-.07a6.45,6.45,0,0,1,.86,1.27c.67,1.06,1.24,2.19,1.93,3.24.6.89,2.16,1.85,2.55,2.77.63,1.5-2.62,3.6-3.56,4.37-1.12.92.17,2.81,1.31,1.88,1.62-1.34,4.85-3.48,4.74-6-.07-1.54-1.42-2.25-2.35-3.28-1.75-1.93-2.45-5.37-4.77-6.76a2,2,0,0,0-2.26,0c-.9.49-1.33,1.48-2.37,1.94a7.06,7.06,0,0,1-1.7.49c-1.46.2-1.29,2.48.17,2.28Z" style="fill:#FDF4EF"></path><g style="opacity:0.30000000000000004"><path d="M221.92,154.84c2-.28,3-1.38,4.67-2.15,1.12-.53-.22-1,.78-.07a6.45,6.45,0,0,1,.86,1.27c.67,1.06,1.24,2.19,1.93,3.24.6.89,2.16,1.85,2.55,2.77.63,1.5-2.62,3.6-3.56,4.37-1.12.92.17,2.81,1.31,1.88,1.62-1.34,4.85-3.48,4.74-6-.07-1.54-1.42-2.25-2.35-3.28-1.75-1.93-2.45-5.37-4.77-6.76a2,2,0,0,0-2.26,0c-.9.49-1.33,1.48-2.37,1.94a7.06,7.06,0,0,1-1.7.49c-1.46.2-1.29,2.48.17,2.28Z"></path></g></g></svg>