<svg xmlns="http://www.w3.org/2000/svg" viewBox="0 0 750 500"><g id="freepik--background-simple--inject-17"><path d="M655.52,119.07C639,95.46,614.26,77,586,71.22s-59.67,2.32-79.37,23.33c-29.69,31.67-30.11,86.22-66.38,110.06-36.42,23.92-87.9,2.64-127.28,21.27-34.44,16.3-49,62.41-34.69,97.72,9.53,23.54,24.71,42.93,47.32,56.5a117.94,117.94,0,0,0,56,16.44l66.11,2.69a313.64,313.64,0,0,0,54.63-2.38c34.91-4.7,66.78-15,97.61-38.9,35.65-27.66,64-65.77,75.72-109.34S681.37,156.05,655.52,119.07Z" style="fill:#f5f5f5"></path><path d="M401.52,120.55c-2.27-25.55-24.6-47.83-50.16-50-1.36-.81-26,2.47-36.42,9.81-21,14.75-29.11,45.23-18.24,68.46s39.49,36.53,64.25,29.86S403.79,146.1,401.52,120.55Z" style="fill:#f5f5f5"></path></g><g id="freepik--Character--inject-17"><path d="M547,373l8.11,18.39s-16,14.42-14.8,18l36.22-14.45-11.46-29.17Z" style="fill:#FEF4EE"></path><path d="M547,373l8.11,18.39s-16,14.42-14.8,18l36.22-14.45-11.46-29.17Z" style="opacity:0.5"></path><path d="M576.53,394.93,575.26,392,541,407s-1.33,1.34-.7,2.41Z" style="fill:#263238"></path><path d="M610.78,399.07l10.16,17.35S606.72,432.56,608.28,436l34.34-18.48L627.91,389.8Z" style="fill:#FEF4EE"></path><path d="M610.78,399.07l10.16,17.35S606.72,432.56,608.28,436l34.34-18.48L627.91,389.8Z" style="opacity:0.5"></path><path d="M642.62,417.47,641,414.74,608.7,433.48s-1.17,1.49-.42,2.47Z" style="fill:#263238"></path><path d="M566.48,155.77l-22.26,1.74-.74-12.46s-9-.13-10.32-8.9S530.5,107,530.5,107h0a30.83,30.83,0,0,1,31.22-.45l1.44.82Z" style="fill:#ffbe9d"></path><path d="M543.45,144.92a20.65,20.65,0,0,0,11-4.86s-1.94,6.9-10.82,7.34Z" style="fill:#eb996e"></path><path d="M563.36,116.61c.14-.09,5.79-2.64,6.44,3.4s-5.54,5.44-5.57,5.27S563.36,116.61,563.36,116.61Z" style="fill:#ffbe9d"></path><path d="M565.83,122.79s.11.06.3.13a1.05,1.05,0,0,0,.78-.07,2.62,2.62,0,0,0,1-2.47,3.43,3.43,0,0,0-.45-1.47,1.23,1.23,0,0,0-.88-.72.54.54,0,0,0-.59.36c-.06.17,0,.29,0,.3s-.14-.08-.12-.34a.66.66,0,0,1,.2-.4.75.75,0,0,1,.56-.22,1.5,1.5,0,0,1,1.2.82,3.59,3.59,0,0,1,.55,1.64,2.75,2.75,0,0,1-1.26,2.77,1.11,1.11,0,0,1-1-.05C565.85,122.94,565.81,122.81,565.83,122.79Z" style="fill:#eb996e"></path><path d="M534.29,120.8a1.27,1.27,0,0,0,1.39,1.09,1.2,1.2,0,0,0,1.13-1.31,1.26,1.26,0,0,0-1.38-1.1A1.22,1.22,0,0,0,534.29,120.8Z" style="fill:#263238"></path><path d="M533.9,119.12c.18.14,1-.7,2.38-.88s2.44.35,2.56.16-.14-.36-.61-.61a3.53,3.53,0,0,0-2.08-.33,3.38,3.38,0,0,0-1.87.9C533.91,118.74,533.82,119.06,533.9,119.12Z" style="fill:#263238"></path><path d="M547.42,119.28a1.27,1.27,0,0,0,1.39,1.09,1.21,1.21,0,0,0,1.13-1.31,1.27,1.27,0,0,0-1.38-1.1A1.22,1.22,0,0,0,547.42,119.28Z" style="fill:#263238"></path><path d="M547.21,117.5c.18.15,1-.69,2.38-.88s2.43.35,2.56.17-.14-.36-.62-.61a3.42,3.42,0,0,0-2.07-.34,3.35,3.35,0,0,0-1.87.91C547.22,117.13,547.12,117.44,547.21,117.5Z" style="fill:#263238"></path><path d="M543.72,128.2a9.7,9.7,0,0,0-2.25-.08c-.35,0-.69,0-.78-.24a1.74,1.74,0,0,1,.09-1c.2-.88.42-1.81.65-2.77a45.26,45.26,0,0,0,1.32-7.19,45.73,45.73,0,0,0-1.9,7.06l-.6,2.78a2,2,0,0,0,0,1.38.86.86,0,0,0,.64.42,1.93,1.93,0,0,0,.59,0A8.93,8.93,0,0,0,543.72,128.2Z" style="fill:#263238"></path><path d="M547.82,128.58c-.22,0,0,1.48-1.13,2.7s-2.69,1.27-2.67,1.48.39.24,1.05.16a3.68,3.68,0,0,0,2.24-1.15,3.18,3.18,0,0,0,.85-2.25C548.13,128.9,547.92,128.56,547.82,128.58Z" style="fill:#263238"></path><path d="M546.11,112.26c.19.35,1.51,0,3.12,0s3,.22,3.12-.14c.07-.17-.2-.49-.77-.77a5.17,5.17,0,0,0-2.39-.48,5.31,5.31,0,0,0-2.36.62C546.29,111.77,546,112.1,546.11,112.26Z" style="fill:#263238"></path><path d="M533.85,115.14c.28.27,1.17-.17,2.28-.35s2.1-.08,2.27-.43c.07-.17-.12-.46-.57-.69a3.23,3.23,0,0,0-1.93-.24,3.14,3.14,0,0,0-1.74.87C533.81,114.67,533.72,115,533.85,115.14Z" style="fill:#263238"></path><path d="M525.44,102.05a3.32,3.32,0,0,1,.79-3.07,2.33,2.33,0,0,1,3-.19,2.72,2.72,0,0,1,1.85-3.58c1.42-.29,2.8.62,4.24.8a6.56,6.56,0,0,0,4-1.05c1.23-.7,2.34-1.6,3.59-2.26a11.34,11.34,0,0,1,15.29,4.57,5,5,0,0,1,5.57,1.26,8.27,8.27,0,0,1,2.07,5.59,18.75,18.75,0,0,1-.45,4.08c0,.11,0,.22.05.34.59,4.84.84,10.59-1.21,10.91-3.59.56-3.68-6.33-3.68-6.33-4.65-1.08-3.94-7.92-5.18-8.76s-3.88-2.85-12.44,3.16a18.07,18.07,0,0,1-10.78,2.73l-.24,0h-.06l-.08,0a8.42,8.42,0,0,1-2.5-.67,4.74,4.74,0,0,1-2.26-1.9,2.59,2.59,0,0,1,.12-2.82A5.71,5.71,0,0,1,525.44,102.05Z" style="fill:#263238"></path><polygon points="543.45 152.68 544.44 187.56 566.14 140.85 565.6 136.52 543.45 152.68" style="fill:#ebebeb"></polygon><path d="M557.84,256.93c-.79.26-46,45.95-45,54.16s33.17,69,33.17,69l23-11.31-21.53-53.28.28-3.31,26.31-21.55L572.66,256Z" style="fill:#263238"></path><path d="M567.58,265.94c.53.79,8.35,72.57,10.45,76.28s33.52,65,33.52,65l23.33-9.4L606.4,330.47l3.24-63.74-1.75-18L572.66,256Z" style="fill:#263238"></path><path d="M577.62,341a3.5,3.5,0,0,1-.15-.72c-.09-.52-.2-1.21-.34-2.07-.28-1.86-.68-4.45-1.16-7.63-.93-6.51-2.21-15.4-3.63-25.22s-2.58-18.74-3.48-25.24c-.41-3.2-.75-5.8-1-7.66l-.24-2.09a3.61,3.61,0,0,1,0-.73s.06.25.15.72.2,1.21.34,2.07l1.15,7.64c.94,6.5,2.22,15.39,3.63,25.22s2.59,18.73,3.48,25.24c.42,3.19.76,5.79,1,7.65.1.87.19,1.57.25,2.09A3.65,3.65,0,0,1,577.62,341Z" style="fill:#455a64"></path><path d="M605.81,328.41a35.3,35.3,0,0,1-1.36,5.69,34.31,34.31,0,0,1-1.84,5.55A35,35,0,0,1,604,334,33.19,33.19,0,0,1,605.81,328.41Z" style="fill:#455a64"></path><path d="M609.34,344.67a6.56,6.56,0,0,1-1.28-1.77,17.53,17.53,0,0,1-2.17-10.2,6.43,6.43,0,0,1,.44-2.13,22.8,22.8,0,0,0,3,14.1Z" style="fill:#455a64"></path><path d="M540,307.75a12.26,12.26,0,0,1,6.45,5.88c-.12.08-1.24-1.55-3-3.16S539.89,307.88,540,307.75Z" style="fill:#455a64"></path><path d="M543.5,305.63a6.94,6.94,0,0,1,2.22,2.52,7,7,0,0,1,1.27,3.12,30,30,0,0,1-1.69-2.86A30,30,0,0,1,543.5,305.63Z" style="fill:#455a64"></path><path d="M546.62,200.91l5.77,28.66,4.7,40s19.38-2.71,27.64-5.32c9.58-3,30.42-5.62,30.42-5.62l-3.52,3.48c7.46-2.09,12.21-9.2,12.21-9.2C611,241,600,216.44,600,216.44l-9.77-48.52s-1.48-6.84-2.38-9.89-15.73-12.86-17.79-14.1l-1.29-.61-.41-3.89-1.53-.92L550.79,153.1A17.35,17.35,0,0,0,545.2,164a125,125,0,0,0-.7,18.25C544.69,188,546.62,200.91,546.62,200.91Z" style="fill:#FEF4EE"></path><path d="M557.64,151.28s-8.48,4.55-9.95,8.41,2.9,46.18,2.9,46.18l-30.47.58L520,224.6s48.39,3.83,50.28,1.21c2.54-3.54,5.5-36.61,5.5-36.61l1.1-23.8S574.11,147.26,557.64,151.28Z" style="fill:#FEF4EE"></path><g style="opacity:0.30000000000000004"><path d="M552.39,229.57a29.26,29.26,0,0,0,12.2,1.13c4.29-.39,8.66-2.74,10.28-6.74,1.24-3.05.72-6.5.91-9.79.17-2.87.87-5.67,1.31-8.5s-1-8-2-10.75c0,0-1.08,19.64-4.16,27.89a6.62,6.62,0,0,1-1.88,3c-1.09.88-2.59,1-4,1.1-3.89.41-13.27-.27-13.27-.27"></path></g><path d="M576.86,168a2.5,2.5,0,0,1,0,.44c0,.3,0,.72-.05,1.26,0,1.14-.13,2.77-.23,4.86s-.25,4.7-.41,7.69-.28,6.42-.65,10.18-.72,7.88-1.19,12.3-1,9.14-1.85,14.07a29.8,29.8,0,0,1-.84,3.73,7.32,7.32,0,0,1-2.2,3.3,5.57,5.57,0,0,1-3.79,1.35c-1.34,0-2.69,0-4,0-5.44-.14-11.06-.41-16.82-.73-8.65-.47-17-1-24.77-1.56l-.22,0v-.22c0-6.45.07-12.52.11-18.13v-.21h.21l29.41-.63,8.22-.14,2.17,0c.49,0,.74,0,.74,0s-.25,0-.74.05l-2.16.09-8.23.26-29.4.81.21-.21c0,5.6,0,11.67-.06,18.12l-.23-.24c7.79.53,16.13,1.07,24.77,1.54,5.75.31,11.37.6,16.8.74,1.36,0,2.7.05,4,0a5.06,5.06,0,0,0,3.5-1.23,6.79,6.79,0,0,0,2.05-3.08,30.29,30.29,0,0,0,.83-3.66c.85-4.91,1.39-9.63,1.9-14s.9-8.52,1.25-12.28.52-7.18.72-10.17.36-5.56.49-7.68.25-3.72.33-4.85c0-.54.07-1,.1-1.27A2.14,2.14,0,0,1,576.86,168Z" style="fill:#263238"></path><path d="M526,224.33a77.67,77.67,0,0,1-.21-8.8,77.84,77.84,0,0,1,.3-8.8,77.67,77.67,0,0,1,.21,8.8A77.84,77.84,0,0,1,526,224.33Z" style="fill:#263238"></path><path d="M522.78,209.49c-.06,0,.24-.38.82-.18a.93.93,0,0,1,.62.8,1.07,1.07,0,0,1-1.84.86,1,1,0,0,1-.3-.95c.14-.58.54-.7.55-.64s-.19.27-.2.68a.73.73,0,0,0,.25.57.7.7,0,0,0,.71.11.68.68,0,0,0,.37-.6.6.6,0,0,0-.31-.51C523.1,209.42,522.81,209.55,522.78,209.49Z" style="fill:#263238"></path><path d="M590.38,172.08s15.86,20.73,17.79,26.37.44,13.76-2.79,17.64-5.83,2.3-5.83,2.3Z" style="fill:#FEF4EE"></path><path d="M599,216.73a17.46,17.46,0,0,1-4,.93,16.56,16.56,0,0,1-4.06.44,17.28,17.28,0,0,1,4-.93A16.56,16.56,0,0,1,599,216.73Z" style="fill:#263238"></path><path d="M602,232a5.93,5.93,0,0,1,.43,1.09c.24.72.6,1.74,1.07,3a90,90,0,0,0,4.26,9.61,102.56,102.56,0,0,0,5.32,9.06c.74,1.13,1.35,2,1.78,2.65a5.1,5.1,0,0,1,.62,1,5.24,5.24,0,0,1-.78-.88c-.47-.59-1.13-1.46-1.91-2.57a78.07,78.07,0,0,1-5.48-9,70.15,70.15,0,0,1-4.14-9.72c-.43-1.28-.75-2.33-.93-3.06A4.56,4.56,0,0,1,602,232Z" style="fill:#263238"></path><g style="opacity:0.30000000000000004"><path d="M603.1,234.46c2.52,4.48,5.1,9,8.92,12.47a22.84,22.84,0,0,1,3.9,3.77c1,1.49,1.47,3.57.49,5.1a1.58,1.58,0,0,1-1.58.85,2,2,0,0,1-1-.84,61.74,61.74,0,0,1-10.53-20.66"></path></g><g style="opacity:0.30000000000000004"><path d="M601,218.31c2.17-1.56,2.93-4.52,2.61-7.18s-1.54-5.1-2.63-7.53A123.35,123.35,0,0,1,593.27,181l-1.55-5.75,7.84,41Z"></path></g><path d="M561.77,149.44a32.6,32.6,0,0,1,3-2.95,34.47,34.47,0,0,1,3-3,12.16,12.16,0,0,1-2.6,3.31A11.69,11.69,0,0,1,561.77,149.44Z" style="fill:#263238"></path><path d="M560.17,153c0,.09-.92.37-2.32,1.06a18.4,18.4,0,0,0-8.41,8.52c-.68,1.41-1,2.35-1,2.33a2.06,2.06,0,0,1,.11-.69,12.38,12.38,0,0,1,.6-1.79,16.58,16.58,0,0,1,8.59-8.69,12.06,12.06,0,0,1,1.78-.62A2,2,0,0,1,560.17,153Z" style="fill:#263238"></path><path d="M602.74,222.44a1.76,1.76,0,0,1-.25-.4l-.63-1.19c-.57-1.11-1.34-2.62-2.29-4.46v0c-1-4.54-2.39-11.16-3.92-18.53C594.23,190.87,593,184.58,592,180l-1-5.43c-.1-.59-.19-1.08-.26-1.48a1.83,1.83,0,0,1-.05-.52,2.52,2.52,0,0,1,.15.5c.09.39.21.88.35,1.47.3,1.34.71,3.16,1.2,5.39,1,4.62,2.3,10.9,3.76,17.83,1.53,7.37,2.87,14,3.76,18.57v0c.89,1.87,1.61,3.4,2.14,4.53l.56,1.23A1.89,1.89,0,0,1,602.74,222.44Z" style="fill:#263238"></path><path d="M550.07,205.86a8,8,0,0,1-.24-1.5c-.11-1.06-.26-2.45-.44-4.12-.36-3.47-.82-8.28-1.29-13.58s-.87-10.12-1.14-13.61c-.12-1.67-.21-3.06-.29-4.12a8.37,8.37,0,0,1,0-1.52,10.19,10.19,0,0,1,.23,1.5c.11,1.06.26,2.45.45,4.12.35,3.47.81,8.27,1.28,13.58s.87,10.12,1.14,13.6c.12,1.67.21,3.06.29,4.13A10.93,10.93,0,0,1,550.07,205.86Z" style="fill:#263238"></path><path d="M520.51,208.57s-6.58-5-8.18-5.29c-1.23-.23-8.56-.1-11.93,0a2.4,2.4,0,0,0-2.42,2.34,1,1,0,0,0,0,.24,2.17,2.17,0,0,0,1.6,1.66,2.55,2.55,0,0,0-1.77,2.41c0,1.9,2.27,2.3,2.27,2.3l-.33.3a2.27,2.27,0,0,0,1.12,3.81l1,.24a2.24,2.24,0,0,0-1.39,1.89c0,2.5,5.68,3,5.68,3s13.93,2.21,14.23,2.11S520.51,208.57,520.51,208.57Z" style="fill:#ffbe9d"></path><path d="M501.69,200.28c.06.83.26,2.59,1.66,3.38l7.77-.3s-5.78-2-6.61-3a6.05,6.05,0,0,0-1.11-1.09A1.1,1.1,0,0,0,501.69,200.28Z" style="fill:#ffbe9d"></path><path d="M507.46,203.28a11,11,0,0,1-3.54.25,13.73,13.73,0,0,1-3.54-.25,11.9,11.9,0,0,1,3.55-.25A14.67,14.67,0,0,1,507.46,203.28Z" style="fill:#eb996e"></path><path d="M505.72,207.62a7.35,7.35,0,0,1-3.06.31,7.23,7.23,0,0,1-3-.53,14.14,14.14,0,0,1,3.05,0A13.4,13.4,0,0,1,505.72,207.62Z" style="fill:#eb996e"></path><path d="M509.67,207.06c.12.08,0,.5-.47.78s-.89.25-.9.11.28-.31.62-.53S509.55,207,509.67,207.06Z" style="fill:#eb996e"></path><path d="M506.57,212.54a22.39,22.39,0,0,1-6.67-.22,11.1,11.1,0,0,1,3.35-.15A11.27,11.27,0,0,1,506.57,212.54Z" style="fill:#eb996e"></path><path d="M511,210.46c.06,0,.18.14.22.44a1.58,1.58,0,0,1-1.36,1.73c-.3,0-.48,0-.48-.11s.67-.22,1.11-.79S510.88,210.49,511,210.46Z" style="fill:#eb996e"></path><path d="M507.75,217.35a9.31,9.31,0,0,1-3-.12,9.12,9.12,0,0,1-3-.62,9.31,9.31,0,0,1,3,.12A9.43,9.43,0,0,1,507.75,217.35Z" style="fill:#eb996e"></path><path d="M512.08,214.9c.06,0,.16.16.15.47a1.89,1.89,0,0,1-.42,1c-.56.69-1.2.94-1.27.84s.41-.57.88-1.15S512,214.93,512.08,214.9Z" style="fill:#eb996e"></path><path d="M609,262.51a8.85,8.85,0,0,0,6.73-4.24c.16-.27.3-.64.09-.87a.8.8,0,0,0-.59-.18,18.26,18.26,0,0,0-6.38,1.1.87.87,0,0,0-.57.43.85.85,0,0,0,0,.52c.27,1.05.54,2.1.82,3.16" style="fill:#FEF4EE"></path><g style="opacity:0.4"><path d="M609,262.51a8.85,8.85,0,0,0,6.73-4.24c.16-.27.3-.64.09-.87a.8.8,0,0,0-.59-.18,18.26,18.26,0,0,0-6.38,1.1.87.87,0,0,0-.57.43.85.85,0,0,0,0,.52c.27,1.05.54,2.1.82,3.16"></path></g><path d="M543.45,152.68s-3.2,10.73-2.32,10.12,2.79-2.3,2.79-2.3Z" style="fill:#ebebeb"></path><path d="M543.63,157.63l-1.74,4.18a5.15,5.15,0,0,0-.34,1.35c-.15,1.17-.31,3.31.38,3.46a2.34,2.34,0,0,0,1.87-.77Z" style="fill:#263238"></path><path d="M597.83,158.29s-17.09-6.67-26.56-.78-11.19,15.29-16.83,15.29c-11,0-10.64-7.76-10.64-7.76l-2.34.71c0,1.59-2.54,13,9,14.39s16.46-14.38,26.88-14.39a34.56,34.56,0,0,1,18.33,5.63l7.49-4.73Z" style="fill:#263238"></path><path d="M554,180a16.09,16.09,0,0,0,6.59-7.57c2.66-6.13,8.36-13.12,13.12-14.88s15.77-3,23.38,2l4.87,6.58-6.32,4.11a58.77,58.77,0,0,0-11.15-4.47c-7.86-2.19-12.64.29-17.21,4.61-.28.27-.55.54-.77.8a51.8,51.8,0,0,1-7.24,6.4C557,179.11,555,180,554,180Z" style="fill:#455a64"></path></g><g id="freepik--Flag--inject-17"><path d="M200,86.87c-10.14,1.57-17.57-7-19.94-14.53-2.19-7-3.23-14.29-6.3-21-4.3-9.3-15.68-13.6-25.89-12.74s-20.51,6-29.55,10.81l2.5,56s19.67-21,29.13-21.34c15.78-.63,14.92,25.3,30.24,29.13,0,0,21.48,5.82,36-12.93,9.21-11.91,10-26.37,10-26.37S219.13,83.92,200,86.87Z" style="fill:#FEF4EE"></path><path d="M117.88,40.17c.14,0,2.9,59.48,6.16,132.85s5.8,132.87,5.66,132.88-2.89-59.47-6.16-132.86S117.74,40.18,117.88,40.17Z" style="fill:#263238"></path><g style="opacity:0.2"><path d="M172,68.46a68.42,68.42,0,0,0,7.46,16.82c2.92,4.57,7.35,8.42,12.66,9.53a12.48,12.48,0,0,1,2.84.73,2.74,2.74,0,0,1,1.69,2.23c0,1.47-1.47,2.43-2.79,3.08a23.2,23.2,0,0,1-5.83,2.24c-2,.38-3.66.6-5.07-1a28.52,28.52,0,0,1-3.66-4.39c-4.63-7.89-6.92-19.17-7.3-28.09"></path></g><path d="M185.75,104.43s-.16-.07-.45-.26a13.37,13.37,0,0,1-1.21-.89,20.48,20.48,0,0,1-3.74-4.06,31,31,0,0,1-3.75-7.28,80.77,80.77,0,0,1-2.77-9.63,106.78,106.78,0,0,1-2.59-18c-.13-2.32-.15-4.2-.15-5.5,0-.61,0-1.1,0-1.5a2.66,2.66,0,0,1,0-.52,1.81,1.81,0,0,1,.06.52c0,.4,0,.89.06,1.49.06,1.3.13,3.18.31,5.49a119.92,119.92,0,0,0,2.72,17.9A86.15,86.15,0,0,0,177,91.78,32.32,32.32,0,0,0,180.64,99a22.13,22.13,0,0,0,3.57,4.11C185.18,104,185.78,104.4,185.75,104.43Z" style="fill:#263238"></path></g><g id="freepik--Stairs--inject-17"><polygon points="56.74 317.72 190.71 339.65 190.71 317.72 56.74 317.72" style="fill:#e0e0e0"></polygon><polygon points="212.82 367.27 346.8 389.2 346.8 367.27 212.82 367.27" style="fill:#e0e0e0"></polygon><polygon points="367.83 414.66 501.81 436.59 501.81 414.66 367.83 414.66" style="fill:#e0e0e0"></polygon><polygon points="522.64 452.38 656.61 474.31 656.61 452.38 522.64 452.38" style="fill:#e0e0e0"></polygon><rect x="56.74" y="301.3" width="133.97" height="16.43" style="fill:#FEF4EE"></rect><g style="opacity:0.30000000000000004"><rect x="148.9" y="301.3" width="41.81" height="16.43"></rect></g><rect x="212.82" y="350.84" width="133.97" height="16.43" style="fill:#FEF4EE"></rect><g style="opacity:0.30000000000000004"><rect x="304.99" y="350.84" width="41.81" height="16.43"></rect></g><rect x="367.84" y="398.23" width="133.97" height="16.43" style="fill:#FEF4EE"></rect><g style="opacity:0.30000000000000004"><rect x="460" y="398.23" width="41.81" height="16.43"></rect></g><rect x="522.85" y="435.95" width="133.97" height="16.43" style="fill:#FEF4EE"></rect><g style="opacity:0.30000000000000004"><rect x="615.01" y="435.95" width="41.81" height="16.43"></rect></g><path d="M574.26,376.16a3.64,3.64,0,1,0,3.64-3.65A3.64,3.64,0,0,0,574.26,376.16Z" style="fill:#ebebeb"></path></g></svg>